<svg id="Layer_1" data-name="Layer 1" xmlns="http://www.w3.org/2000/svg" width="451" height="83.9" viewBox="0 0 451 83.9"><defs><style>.cls-1{fill:#b1bdf8;}.cls-2{fill:#43599e;}.cls-3{fill:#d2e0ff;}</style></defs><rect class="cls-1" x="1" width="449" height="67.4"/><path class="cls-2" d="M475.19,207.47v74.74h-450V207.27c1.75-.07,3.51-.09,5.28,0,19.28.52,34.54,6.51,48.27,18.35h0c5,5.12,9,9.64,12.65,13.59,14,15.33,23.29,27.21,54,27.21h204c32.32,0,44.93-12.5,61.49-29.52l0,0c3.23-3.32,6.74-7,10.72-11.09h0c13.72-11.84,28-17.83,47.28-18.34Q472.08,207.3,475.19,207.47Z" transform="translate(-24.69 -206.3)"/><path class="cls-3" d="M475.69,220.46v69.75h-451V220.27c1.75-.07,3.52-.09,5.29,0a80.07,80.07,0,0,1,50.35,19.11h0c5,5,9.07,9.51,12.68,13.4,14,15.13,21.37,21.85,52.16,21.85H349.59c32.39,0,42.07-7.33,58.67-24.13l0,0c3.24-3.27,6.75-6.92,10.74-10.93h0a80.07,80.07,0,0,1,50.35-19.11Q472.57,220.29,475.69,220.46Z" transform="translate(-24.69 -206.3)"/></svg>