<svg xmlns="http://www.w3.org/2000/svg" xmlns:xlink="http://www.w3.org/1999/xlink" width="184.154" height="90" viewBox="0 0 184.154 90">
  <defs>
    <filter id="Path_1" x="0" y="25.587" width="68.24" height="46.22" filterUnits="userSpaceOnUse">
      <feOffset dy="6" input="SourceAlpha"/>
      <feGaussianBlur stdDeviation="3" result="blur"/>
      <feFlood flood-opacity="0.161"/>
      <feComposite operator="in" in2="blur"/>
      <feComposite in="SourceGraphic"/>
    </filter>
    <filter id="Path_2" x="48.859" y="25.044" width="37.293" height="48.945" filterUnits="userSpaceOnUse">
      <feOffset dy="6" input="SourceAlpha"/>
      <feGaussianBlur stdDeviation="3" result="blur-2"/>
      <feFlood flood-opacity="0.161"/>
      <feComposite operator="in" in2="blur-2"/>
      <feComposite in="SourceGraphic"/>
    </filter>
    <filter id="Path_3" x="68.112" y="25.612" width="47.838" height="34.802" filterUnits="userSpaceOnUse">
      <feOffset dy="6" input="SourceAlpha"/>
      <feGaussianBlur stdDeviation="3" result="blur-3"/>
      <feFlood flood-opacity="0.161"/>
      <feComposite operator="in" in2="blur-3"/>
      <feComposite in="SourceGraphic"/>
    </filter>
    <filter id="Path_4" x="95.641" y="0" width="56.997" height="60.414" filterUnits="userSpaceOnUse">
      <feOffset dy="6" input="SourceAlpha"/>
      <feGaussianBlur stdDeviation="3" result="blur-4"/>
      <feFlood flood-opacity="0.161"/>
      <feComposite operator="in" in2="blur-4"/>
      <feComposite in="SourceGraphic"/>
    </filter>
    <filter id="Path_5" x="132.395" y="25.044" width="38.161" height="48.945" filterUnits="userSpaceOnUse">
      <feOffset dy="6" input="SourceAlpha"/>
      <feGaussianBlur stdDeviation="3" result="blur-5"/>
      <feFlood flood-opacity="0.161"/>
      <feComposite operator="in" in2="blur-5"/>
      <feComposite in="SourceGraphic"/>
    </filter>
    <filter id="Path_6" x="150.298" y="25.049" width="33.856" height="55.081" filterUnits="userSpaceOnUse">
      <feOffset dy="6" input="SourceAlpha"/>
      <feGaussianBlur stdDeviation="3" result="blur-6"/>
      <feFlood flood-opacity="0.161"/>
      <feComposite operator="in" in2="blur-6"/>
      <feComposite in="SourceGraphic"/>
    </filter>
    <filter id="Path_7" x="59.414" y="38.683" width="57.515" height="51.317" filterUnits="userSpaceOnUse">
      <feOffset dy="6" input="SourceAlpha"/>
      <feGaussianBlur stdDeviation="3" result="blur-7"/>
      <feFlood flood-opacity="0.161"/>
      <feComposite operator="in" in2="blur-7"/>
      <feComposite in="SourceGraphic"/>
    </filter>
    <filter id="Path_8" x="60.599" y="44.435" width="48.622" height="43.769" filterUnits="userSpaceOnUse">
      <feOffset dy="6" input="SourceAlpha"/>
      <feGaussianBlur stdDeviation="3" result="blur-8"/>
      <feFlood flood-opacity="0.161"/>
      <feComposite operator="in" in2="blur-8"/>
      <feComposite in="SourceGraphic"/>
    </filter>
  </defs>
  <g id="Pixis_Logo" data-name="Pixis Logo" transform="translate(9 3)">
    <g transform="matrix(1, 0, 0, 1, -9, -3)" filter="url(#Path_1)">
      <path id="Path_1-2" data-name="Path 1" d="M138.33,246.238H118.138a13.79,13.79,0,0,0-1.539.066,4.022,4.022,0,0,0-1.026.238,3.485,3.485,0,0,0-.847.472,10.257,10.257,0,0,0-.913.807l-8.251,7.911c-1.324,1.264-2.473,1.9-3.458,1.9a5.279,5.279,0,0,1-3.592-1.867l-8.369-8.257q-2.052-2.03-2.052-2.786a4.176,4.176,0,0,1,1.6-2.847l6.014-5.76-1.468,2.593A13.094,13.094,0,0,0,93.4,240.4a3.244,3.244,0,0,0-.251,1.015q0,.913,1.822,2.72l6.5,6.455c1.447,1.431,2.407,2.152,2.879,2.152q.446,0,2.335-1.837l3.71-3.552a3.731,3.731,0,0,0,1.247-2.816,4.936,4.936,0,0,0-.38-1.867l-.7-1.741a3.939,3.939,0,0,0-2.052-1.9l4.192-4.116,3.294,6.551h3.592l-1.663-3.258a4.5,4.5,0,0,0-2.053-1.9l4.187-4.116,4.618,9.272h3.592l-3.079-6.044a4.45,4.45,0,0,0-2.052-1.9l4.192-4.116,6.014,12.058h4.993Z" transform="translate(-79.09 -200.82)" fill="#223761" opacity="0.29"/>
    </g>
    <g transform="matrix(1, 0, 0, 1, -9, -3)" filter="url(#Path_2)">
      <path id="Path_2-2" data-name="Path 2" d="M202.6,245.711h-5.085a9.422,9.422,0,0,1-.718.842c-.313.325-.677.69-1.108,1.091l-4.957,4.618a7.067,7.067,0,0,0-.877-1.994,14.673,14.673,0,0,0-1.6-2.152,12.31,12.31,0,0,0-1.873-1.71,3.051,3.051,0,0,0-1.693-.7h0v-4.745h-.1q1.155,0,4,2.847l3.294,3.354a2.4,2.4,0,0,0,.544-1.456,9.173,9.173,0,0,0-1.052-2.75l-1.411-2.816a13.028,13.028,0,0,1-1.632-4.369,5.43,5.43,0,0,1,1.57-3.669l3.966-3.765a8.969,8.969,0,0,0-.446,2.471,10.2,10.2,0,0,0,1.375,3.857l2.109,4.176.611,1.253a7.757,7.757,0,0,1,.385.868h4.7Zm-13.018,10.22c0,.548-.559,1.67-1.668,3.354a7.5,7.5,0,0,0-3.2-2.436c-.939-.381-1.411-.888-1.411-1.522q0-.761,3.746-3.765a2.2,2.2,0,0,0,.446,1.152c.277.391.564.771.867,1.142s.575.726.831,1.076a1.694,1.694,0,0,1,.385,1Zm7.389,0c0,.548-.554,1.67-1.662,3.354a7.518,7.518,0,0,0-3.2-2.436c-.939-.381-1.406-.888-1.406-1.522q0-.761,3.741-3.765a2.209,2.209,0,0,0,.452,1.152q.416.584.862,1.142c.3.37.575.726.831,1.076a1.694,1.694,0,0,1,.385,1Z" transform="translate(-125.45 -200.3)" fill="#223761" opacity="0.29"/>
    </g>
    <g transform="matrix(1, 0, 0, 1, -9, -3)" filter="url(#Path_3)">
      <path id="Path_3-2" data-name="Path 3" d="M245.67,241.518l-6.019-12.058-4.187,4.116a4.5,4.5,0,0,1,2.052,1.9l3.079,6.044H237l-4.618-9.272-4.192,4.116a4.45,4.45,0,0,1,2.052,1.9l1.663,3.258h-3.592l-3.294-6.551-4.192,4.116a4.087,4.087,0,0,1,2.052,1.9l.257.538H220.9v4.745H237.27l2.566-2,10.134-1.614-4.551,1.563,1.7,2.055h3.551v-4.745Z" transform="translate(-143.72 -200.85)" fill="#223761" opacity="0.29"/>
    </g>
    <g transform="matrix(1, 0, 0, 1, -9, -3)" filter="url(#Path_4)">
      <path id="Path_4-2" data-name="Path 4" d="M313.477,221.4h-39a4.777,4.777,0,0,1,4.8-4.745H303.4l-1.313-2.563h-23.1a2.863,2.863,0,0,1-.924-.147,3.085,3.085,0,0,1-1.216-.741,2.942,2.942,0,0,1-.657-1.015,3.452,3.452,0,0,1-.241-1.314c0-.355.97-1.467,2.909-3.319l12.736-12.179q2.627-2.5,2.622-4.491,0-4.811-4.618-4.811a6.654,6.654,0,0,0-1.468.188,16.766,16.766,0,0,0-1.683.507c-.585.213-1.185.452-1.806.716s-1.226.507-1.822.807l9.467-9.307,3.2,6.267a12.571,12.571,0,0,1,1.632,5.506q0,3.167-3.171,6.14l-5.372,5.075c-1.365,1.289-2.052,2.192-2.052,2.72a2.866,2.866,0,0,0,.318,1.583l.482,1.2a2.8,2.8,0,0,0,2.909,1.837h14.814q.831,0,1.95,2.37l2.3,4.938h4.161Z" transform="translate(-169.84 -175.99)" fill="#223761"/>
    </g>
    <g transform="matrix(1, 0, 0, 1, -9, -3)" filter="url(#Path_5)">
      <path id="Path_5-2" data-name="Path 5" d="M366.27,245.711h-5.09a9.418,9.418,0,0,1-.718.842c-.308.325-.677.69-1.1,1.091l-4.962,4.618a7.065,7.065,0,0,0-.877-1.994,14.322,14.322,0,0,0-1.6-2.152,12.083,12.083,0,0,0-1.873-1.71,3.02,3.02,0,0,0-1.693-.7H346.11v-4.745h2.145q1.155,0,4,2.847l3.294,3.354a2.439,2.439,0,0,0,.544-1.456,9.248,9.248,0,0,0-1.057-2.75l-1.406-2.816A13.028,13.028,0,0,1,352,235.774a5.446,5.446,0,0,1,1.565-3.669l3.966-3.765a8.967,8.967,0,0,0-.446,2.471,10.289,10.289,0,0,0,1.375,3.857l2.114,4.156c.231.507.436.9.605,1.253s.3.634.385.868h4.705Zm-13.033,10.22c0,.548-.554,1.67-1.663,3.354a7.517,7.517,0,0,0-3.2-2.436c-.939-.381-1.406-.888-1.406-1.522q0-.761,3.741-3.765a2.208,2.208,0,0,0,.452,1.152q.416.584.862,1.142c.3.37.575.726.831,1.076A1.7,1.7,0,0,1,353.237,255.931Zm7.389,0c0,.548-.554,1.67-1.663,3.354a7.518,7.518,0,0,0-3.2-2.436c-.934-.381-1.406-.888-1.406-1.522q0-.761,3.746-3.765a2.2,2.2,0,0,0,.446,1.152q.416.584.862,1.142c.3.37.58.726.831,1.076a1.7,1.7,0,0,1,.4,1Z" transform="translate(-204.71 -200.3)" fill="#223761"/>
    </g>
    <g transform="matrix(1, 0, 0, 1, -9, -3)" filter="url(#Path_6)">
      <path id="Path_6-2" data-name="Path 6" d="M396.855,242.935a8.318,8.318,0,0,1-.082,1.233,3.383,3.383,0,0,1-.333,1.015,5.045,5.045,0,0,1-.785,1.076c-.354.381-.816.847-1.391,1.4l-4.962,4.618a7.068,7.068,0,0,0-.877-1.994,14.67,14.67,0,0,0-1.6-2.152,12.315,12.315,0,0,0-1.873-1.71,3.05,3.05,0,0,0-1.693-.7H381v-4.745h2.145q1.155,0,4,2.847l3.3,3.354a2.441,2.441,0,0,0,.544-1.456,9.249,9.249,0,0,0-1.057-2.75l-1.411-2.816a13.029,13.029,0,0,1-1.632-4.369,5.43,5.43,0,0,1,1.57-3.669l3.966-3.765a8.968,8.968,0,0,0-.446,2.471,10.2,10.2,0,0,0,1.375,3.857l2.109,4.176A10.659,10.659,0,0,1,396.855,242.935ZM388.5,255.307q0,.822-1.662,3.349a7.533,7.533,0,0,0-3.2-2.436c-.944-.376-1.411-.883-1.411-1.522q0-.761,3.746-3.765a2.213,2.213,0,0,0,.446,1.157c.277.391.564.766.862,1.137s.58.731.831,1.076A1.7,1.7,0,0,1,388.5,255.307Zm4.926,6.77q0,.822-1.663,3.354a7.533,7.533,0,0,0-3.2-2.436c-.939-.381-1.411-.888-1.411-1.522q0-.756,3.746-3.765a2.214,2.214,0,0,0,.446,1.157c.277.391.564.771.862,1.137s.58.731.836,1.076A1.71,1.71,0,0,1,393.428,262.076Zm2.463-6.77q0,.822-1.662,3.349a7.533,7.533,0,0,0-3.2-2.436c-.939-.376-1.411-.883-1.411-1.522q0-.761,3.746-3.765a2.213,2.213,0,0,0,.446,1.157c.277.391.564.766.867,1.137s.575.731.831,1.076a1.694,1.694,0,0,1,.369,1Z" transform="translate(-221.7 -200.3)" fill="#223761"/>
    </g>
    <g transform="matrix(1, 0, 0, 1, -9, -3)" filter="url(#Path_7)">
      <path id="Path_7-2" data-name="Path 7" d="M243.329,256.416l-.031.066c-.056.167-.133.35-.18.467s-.144.386-.174.462-.1.249-.149.391-.128.32-.159.4-.272.716-.359.944c-.174.447-.318.817-.344.893-.077.188-.359.918-.4,1.015-.087.218-.647,1.654-.954,2.451l-.611,1.593c-.174.447-.359.924-.416,1.061a2.95,2.95,0,0,1-.144.32c-.046.056-1.108.913-5.711,4.6-1.709,1.36-3.782,3.045-4.618,3.7-2.945,2.35-17.3,13.7-17.4,13.732a.571.571,0,0,1-.18.025h-.18a3.674,3.674,0,0,1-1.267-.381c-.513-.188-.949-.37-1-.391a.289.289,0,0,1-.128-.167h0a.262.262,0,0,1,.041-.233c.026-.041.513-.431,1.026-.873s16.112-12.748,16.964-13.428l8.415-6.734c.759-.609.79-.629,1.093-.675s.364,0,1.175.279l.749.284a.421.421,0,0,0,.174-.112l.154-.117.113-.223c.051-.127.272-.7.513-1.269s.513-1.289.621-1.609.318-.832.452-1.157a6.4,6.4,0,0,0,.226-.619c0-.015-.652-.817-2.771-3.375l-.7-.853-.908.142-2.632.416-1.724.269-.149.127-.149.117.133.741c.144.858.154.959.062,1.208a1.588,1.588,0,0,1-.128.264c-.087.147.359-.213-5.644,4.567-2.566,2.03-19.545,15.5-20.181,16.006-1.17.939-1.242,1.015-1.37.979a.283.283,0,0,1-.169-.091l-.067-.086a6.344,6.344,0,0,1-.139-.634c-.046-.3-.123-.741-.164-.964a2.638,2.638,0,0,1-.062-.579,2.066,2.066,0,0,0,0-.244.422.422,0,0,1,.041-.183c.051-.112,14.024-11.164,18.318-14.574,1.7-1.355,3.761-3.014,4.592-3.674,4.423-3.552,4.618-3.72,4.731-3.755a2.4,2.4,0,0,1,.4-.071l5.331-.842.682-.112,2.268-.355,1.226-.193.647-.1a.766.766,0,0,1,.18-.025.965.965,0,0,1,.954.37A.875.875,0,0,1,243.329,256.416Z" transform="translate(-135.47 -213.53)" fill="#223761"/>
    </g>
    <g transform="matrix(1, 0, 0, 1, -9, -3)" filter="url(#Path_8)">
      <path id="Path_8-2" data-name="Path 8" d="M236.716,270.605c-.077.127.221-.112-6.127,4.963-2.591,2.07-19.534,15.488-20.048,15.9s-.965.766-1,.787a.641.641,0,0,1-.164.066h0L206.19,288.2c1.267-1.05,15.276-12.129,23.511-18.721,3.823-3.045,3.546-2.837,3.679-2.887a.628.628,0,0,1,.441,0c.077.041,2.94,3.486,2.981,3.583A.6.6,0,0,1,236.716,270.605Z" transform="translate(-136.59 -219.12)" fill="#223761"/>
    </g>
  </g>
</svg>