<?xml version="1.0" encoding="UTF-8"?>
<svg xmlns="http://www.w3.org/2000/svg" id="Outline" viewBox="0 0 512 512" width="512" height="512"><path d="M104,64a88.006,88.006,0,1,0,88,88A88.1,88.1,0,0,0,104,64ZM64,211.867V192a23.975,23.975,0,0,1,17.355-23.052,39.884,39.884,0,0,0,45.29,0A23.975,23.975,0,0,1,144,192v19.866a72,72,0,0,1-80,0ZM104,160a24,24,0,1,1,24-24A24.028,24.028,0,0,1,104,160Zm56,37.306V192a39.993,39.993,0,0,0-21.642-35.547,40,40,0,1,0-68.716,0A39.993,39.993,0,0,0,48,192v5.306A72.013,72.013,0,1,1,176,152,71.388,71.388,0,0,1,160,197.306Z"/><path d="M456,64H296a40.045,40.045,0,0,0-40,40v40H216a8,8,0,0,0-5.122,14.146L256,195.747V200a40.045,40.045,0,0,0,40,40H456a40.045,40.045,0,0,0,40-40V104A40.045,40.045,0,0,0,456,64Zm24,136a24.028,24.028,0,0,1-24,24H296a24.028,24.028,0,0,1-24-24v-8a8,8,0,0,0-2.878-6.146L238.1,160H264a8,8,0,0,0,8-8V104a24.028,24.028,0,0,1,24-24H456a24.028,24.028,0,0,1,24,24Z"/><path d="M456,112H328a8,8,0,0,0,0,16H456a8,8,0,0,0,0-16Z"/><path d="M456,144H296a8,8,0,0,0,0,16H456a8,8,0,0,0,0-16Z"/><path d="M424,176H296a8,8,0,0,0,0,16H424a8,8,0,0,0,0-16Z"/><path d="M408,272a88.006,88.006,0,1,0,88,88A88.1,88.1,0,0,0,408,272ZM368,419.867V400a23.975,23.975,0,0,1,17.355-23.052,39.884,39.884,0,0,0,45.29,0A23.975,23.975,0,0,1,448,400v19.866a72,72,0,0,1-80,0ZM408,368a24,24,0,1,1,24-24A24.028,24.028,0,0,1,408,368Zm56,37.306V400a39.993,39.993,0,0,0-21.642-35.547,40,40,0,1,0-68.716,0A39.993,39.993,0,0,0,352,400v5.306a72,72,0,1,1,112,0Z"/><path d="M216,272H56a40.045,40.045,0,0,0-40,40v96a40.045,40.045,0,0,0,40,40H216a40.045,40.045,0,0,0,40-40v-4.253l45.121-37.6A8,8,0,0,0,296,352H256V312A40.045,40.045,0,0,0,216,272Zm57.9,96-31.025,25.854A8,8,0,0,0,240,400v8a24.028,24.028,0,0,1-24,24H56a24.028,24.028,0,0,1-24-24V312a24.028,24.028,0,0,1,24-24H216a24.028,24.028,0,0,1,24,24v48a8,8,0,0,0,8,8Z"/><path d="M184,392H56a8,8,0,0,0,0,16H184a8,8,0,0,0,0-16Z"/><path d="M216,352H56a8,8,0,0,0,0,16H216a8,8,0,0,0,0-16Z"/><path d="M216,312H88a8,8,0,0,0,0,16H216a8,8,0,0,0,0-16Z"/><circle cx="208" cy="400" r="8"/><circle cx="456" cy="184" r="8"/></svg>
